<svg width="194" height="153" viewBox="0 0 194 153" fill="none" xmlns="http://www.w3.org/2000/svg">
<path d="M102.427 20.9011C102.427 28.0617 97.1816 33.8693 89.6491 33.8885C82.1166 33.9076 76.8708 28.0617 76.8708 20.9011V20.1161C76.8516 18.5535 77.1633 17.0032 77.7872 15.5571C78.4112 14.111 79.3348 12.7984 80.5033 11.6973C81.6718 10.5963 83.0614 9.72902 84.5897 9.14704C86.118 8.56507 87.7538 8.28022 89.4003 8.30938H102.434L102.427 20.9011ZM89.6088 0C77.9805 0 68 8.23279 68 19.8736V20.9011C68 33.1609 76.9717 42 89.676 42H89.9719C102.676 42 111.332 33.1609 111.332 20.9011V8.39872H126V0.0574382L89.6088 0Z" fill="white"/>
<path d="M193.085 72.0986L168.446 72.0359C160.576 72.0359 153.797 78.0224 153.797 86.4968V87.239C153.797 87.3017 153.797 87.3644 153.797 87.4271V89.9221C153.797 93.2463 152.311 95.3649 149.639 95.5148H141.628C141.7 92.8944 141.628 91.0197 141.556 89.49C141.128 84.1064 139.27 79.7333 136.053 76.3916C132.693 72.9733 128.333 71.3007 122.974 71.3007C121.922 71.2998 120.872 71.372 119.829 71.5167L135.266 55H126.403L104.177 78.5764L108.824 83.0157C112.041 79.2315 116.185 77.3394 121.332 77.3394C125.26 77.3394 128.477 78.5032 130.913 80.8239C132.7 82.5 133.843 84.9009 134.335 87.8836C134.548 89.4133 134.678 91.7968 134.619 95.5078H100.563C97.5211 95.5078 95.8854 92.863 95.8136 89.8385V72.2694H90.0885V91.2253C90.0885 92.4692 89.6032 93.6622 88.7394 94.5418C87.8756 95.4213 86.704 95.9155 85.4824 95.9155C84.2608 95.9155 83.0893 95.4213 82.2255 94.5418C81.3617 93.6622 80.8764 92.4692 80.8764 91.2253V74.5657H75.1479V91.2253C75.1479 92.4692 74.6626 93.6622 73.7988 94.5418C72.935 95.4213 71.7634 95.9155 70.5418 95.9155C69.3202 95.9155 68.1487 95.4213 67.2849 94.5418C66.4211 93.6622 65.9358 92.4692 65.9358 91.2253V74.5657H60.2073V90.9431C60.0807 93.5216 58.2533 95.473 55.4643 95.473H50.7111C50.6721 95.473 50.6347 95.4887 50.6071 95.5168C50.5795 95.5449 50.564 95.583 50.564 95.6228V95.452H47.2959C46.7243 95.4414 46.1634 95.2919 45.6599 95.0162C45.1564 94.7404 44.7248 94.3463 44.4009 93.8666C43.583 92.8212 43.1382 91.3717 43.1382 89.6329V74.8096H37.1222V90.95C37.1222 93.445 35.8595 95.4799 33.115 95.4799H16.1109C10.0984 95.4799 6.01252 92.6087 6.01252 87.3923V74.9211C6.01252 74.8916 6.00097 74.8632 5.98044 74.8423C5.9599 74.8214 5.93205 74.8096 5.90301 74.8096H0V87.3958C0 96.9225 6.23494 101.759 16.1109 101.759H32.6702C36.3797 101.759 38.9051 100.247 40.3903 96.9225H40.6127C40.9701 98.2329 41.756 99.3798 42.8405 100.174C44.0741 101.206 45.6236 101.767 47.2207 101.759H50.564V101.627C50.564 101.666 50.5795 101.705 50.6071 101.733C50.6347 101.761 50.6721 101.776 50.7111 101.776H56.0564C58.8385 101.776 61.5727 100.672 63.051 98.4662C64.0127 99.5021 65.1716 100.328 66.4569 100.893C67.7423 101.458 69.1272 101.75 70.5272 101.752C71.9271 101.754 73.3128 101.465 74.5997 100.904C75.8866 100.343 77.0476 99.5203 78.0121 98.4871C79.0188 99.5645 80.2387 100.412 81.5911 100.974C82.9435 101.535 84.3975 101.798 85.857 101.744C87.3166 101.691 88.7484 101.323 90.0577 100.664C91.3671 100.005 92.5241 99.0707 93.4523 97.9226C94.5269 100.285 97.4835 101.79 100.793 101.79H150.347V101.742C153.311 101.442 155.61 99.7973 156.709 96.811C159.306 100.4 163.464 102.585 168.484 102.585H168.662C177.275 102.585 183.14 96.1594 183.14 87.2529V78.1618H193.085V72.0986ZM177.125 87.239C177.125 92.4484 173.572 96.6751 168.46 96.6891C163.347 96.703 159.795 92.4484 159.795 87.239V86.671C159.795 81.6393 163.683 78.0816 168.292 78.0816H177.125V87.239Z" fill="white"/>
<path d="M44.8759 122.72C42.5074 122.672 40.1833 123.356 38.2319 124.675C36.8374 125.616 35.69 126.868 34.884 128.329C34.4036 126.973 33.586 125.757 32.5055 124.79C30.9015 123.413 28.6971 122.723 25.8923 122.72C23.6962 122.666 21.5361 123.276 19.7054 124.469C18.3095 125.41 17.1857 126.69 16.4435 128.184V122.795H0V128.849H9.39727V152.915H16.8113V136.477C16.8113 134.001 17.3956 132.048 18.5643 130.619C19.7329 129.189 21.3644 128.48 23.4588 128.491C25.198 128.491 26.4732 129.026 27.2844 130.095C28.0956 131.164 28.5012 132.826 28.5012 135.079V152.915H35.9186V136.477C35.9186 134.001 36.5018 132.048 37.6681 130.619C38.8345 129.189 40.4465 128.48 42.5043 128.491C44.2847 128.491 45.5599 129.026 46.3299 130.095C47.0998 131.164 47.4859 132.826 47.4882 135.079V152.915H54.9057V134.846C54.9057 130.763 54.075 127.724 52.4137 125.729C50.7524 123.734 48.2398 122.734 44.8759 122.727" fill="white"/>
<path d="M127.414 122.717H118.776L111.64 132.102L104.507 122.717H95.9224L107.524 137.367L95.1698 152.915H103.811L111.64 142.689L119.586 152.915H128.113L115.873 137.367L127.414 122.717Z" fill="white"/>
<path d="M89.5695 121.812H74.9713C67.1285 121.812 60.3962 127.801 60.3962 136.461V137.219C60.3962 146.342 66.4464 152.913 75.0175 152.913H75.1954C78.1683 152.966 81.0852 152.063 83.5523 150.327V152.289H83.6347V152.316H89.5662V152.279H90.5943V121.802H89.5662L89.5695 121.812ZM74.9944 146.883C69.9097 146.883 66.3739 142.546 66.3739 137.23V136.651C66.3739 131.507 70.2393 127.87 74.8263 127.87H83.5523V138.426C83.0646 143.187 79.6935 146.876 74.9845 146.89" fill="white"/>
<path d="M179.431 122.81H170.853V108.991H163.816V128.684V131.523H170.826V128.684H179.564C180.59 128.639 181.613 128.82 182.56 129.214C183.507 129.609 184.356 130.207 185.044 130.966C185.922 131.84 186.619 132.878 187.094 134.021C187.569 135.164 187.814 136.389 187.814 137.626C187.814 138.863 187.569 140.088 187.094 141.231C186.619 142.373 185.922 143.412 185.044 144.286C181.53 147.794 175.375 147.828 171.794 144.385L164.937 137.522L160.963 133.618L154.232 126.827C153.55 126.2 152.819 125.627 152.048 125.112C149.086 123.17 145.565 122.255 142.029 122.508C139.651 122.686 137.351 123.434 135.325 124.688C133.124 125.877 131.29 127.64 130.019 129.79C128.749 131.939 128.09 134.393 128.114 136.887V137.251C128.114 137.75 128.114 138.246 128.148 138.745C128.659 146.823 134.545 152.53 142.727 152.53H142.901C145.874 152.581 148.79 151.722 151.257 150.069V151.939H151.339V151.973H157.269V151.939H158.291V141.532H150.545C150.025 142.813 149.196 143.946 148.134 144.833C147.071 145.72 145.806 146.333 144.449 146.619C143.093 146.905 141.687 146.855 140.354 146.473C139.022 146.091 137.804 145.389 136.808 144.429L136.838 144.395L136.746 144.303C136.235 143.791 135.785 143.221 135.407 142.605C134.527 141.08 134.072 139.349 134.088 137.59V137.037C134.087 136.573 134.122 136.11 134.194 135.652C134.545 134.034 135.319 132.538 136.437 131.314C137.555 130.09 138.978 129.182 140.561 128.682C142.144 128.182 143.832 128.108 145.454 128.467C147.075 128.825 148.573 129.604 149.795 130.725L156.819 137.774L160.796 141.678L167.575 148.456C169.636 150.503 172.239 151.924 175.08 152.552C177.921 153.18 180.883 152.99 183.619 152.004C189.876 150.282 194 144.772 194 137.59V136.867C194 128.623 187.269 122.796 179.431 122.796" fill="white"/>
<path d="M27.4528 111.201C27.4528 114.02 25.5769 116.308 22.8687 116.311C20.1605 116.315 18.3022 114.02 18.3022 111.201V110.892C18.2955 110.277 18.407 109.667 18.63 109.098C18.8531 108.529 19.1833 108.013 19.6009 107.579C20.0185 107.146 20.5151 106.805 21.0613 106.576C21.6075 106.347 22.1921 106.235 22.7805 106.246H27.4387L27.4528 111.201Z" fill="white"/>
</svg>
